<svg xmlns="http://www.w3.org/2000/svg" viewBox="0 0 512 512">
  <defs>
    <linearGradient id="bg" x1="0%" y1="0%" x2="100%" y2="100%">
      <stop offset="0%" stop-color="#2d6b2f"/>
      <stop offset="100%" stop-color="#5d9c32"/>
    </linearGradient>
    <linearGradient id="fruit" x1="0%" y1="0%" x2="100%" y2="100%">
      <stop offset="0%" stop-color="#d9ef7f"/>
      <stop offset="100%" stop-color="#a9cf38"/>
    </linearGradient>
  </defs>
  <rect width="512" height="512" rx="128" fill="url(#bg)"/>
  <path d="M256 104c73 0 132 59 132 132 0 69-44 123-132 172-88-49-132-103-132-172 0-73 59-132 132-132z" fill="url(#fruit)"/>
  <path d="M256 78c13 0 24 11 24 24v39h-48v-39c0-13 11-24 24-24z" fill="#1a4117"/>
  <path d="M183 184l-26 40 47 13-28 40 49 10-30 41 61 4-31 45h62l31-45 61-4-30-41 49-10-28-40 47-13-26-40-49 7 9-49-46 18-16-48-30 40-30-40-16 48-46-18 9 49-49-7z" fill="#7ca123" opacity=".65"/>
  <circle cx="256" cy="274" r="54" fill="#f7f7d8"/>
  <path d="M233 258h46v18h-46zm0 31h46v18h-46z" fill="#274f23"/>
</svg>
